<svg width="63" height="104" viewBox="0 0 63 104" fill="none" xmlns="http://www.w3.org/2000/svg">
<path d="M62.0859 104H1.75781V89.9375L29.4609 54.7109C32.9766 49.8359 35.5547 45.5703 37.1953 41.9141C38.8828 38.2109 39.7266 34.6719 39.7266 31.2969C39.7266 26.75 38.9297 23.1875 37.3359 20.6094C35.7891 18.0312 33.5391 16.7422 30.5859 16.7422C27.3516 16.7422 24.7734 18.2422 22.8516 21.2422C20.9766 24.2422 20.0391 28.4609 20.0391 33.8984H0.0703125C0.0703125 27.6172 1.35938 21.875 3.9375 16.6719C6.5625 11.4688 10.2188 7.4375 14.9062 4.57812C19.6406 1.67188 24.9844 0.21875 30.9375 0.21875C40.0781 0.21875 47.1562 2.75 52.1719 7.8125C57.2344 12.8281 59.7656 19.9766 59.7656 29.2578C59.7656 35.0234 58.3594 40.8828 55.5469 46.8359C52.7812 52.7422 47.7422 60.0312 40.4297 68.7031L27.2812 87.4766H62.0859V104Z" fill="black"/>
</svg>
