<?xml version="1.0" encoding="UTF-8"?>
<svg xmlns="http://www.w3.org/2000/svg" xmlns:xlink="http://www.w3.org/1999/xlink" width="18px" height="18px" viewBox="0 0 18 18" version="1.1">
<g id="surface1">
<path style=" stroke:none;fill-rule:nonzero;fill:rgb(0%,0%,0%);fill-opacity:1;" d="M 17.808594 13.652344 C 17.136719 12.382812 14.808594 11.011719 14.707031 10.949219 C 14.410156 10.78125 14.097656 10.691406 13.804688 10.691406 C 13.371094 10.691406 13.015625 10.890625 12.800781 11.25 C 12.460938 11.65625 12.039062 12.132812 11.933594 12.207031 C 11.140625 12.746094 10.523438 12.683594 9.835938 11.996094 L 6.003906 8.164062 C 5.320312 7.480469 5.257812 6.855469 5.792969 6.066406 C 5.867188 5.960938 6.34375 5.539062 6.75 5.199219 C 7.007812 5.042969 7.1875 4.816406 7.265625 4.53125 C 7.367188 4.160156 7.292969 3.71875 7.046875 3.289062 C 6.988281 3.1875 5.617188 0.863281 4.347656 0.191406 C 4.113281 0.0664062 3.847656 0 3.578125 0 C 3.140625 0 2.726562 0.171875 2.414062 0.484375 L 1.566406 1.332031 C 0.230469 2.667969 -0.257812 4.1875 0.125 5.839844 C 0.445312 7.21875 1.375 8.6875 2.890625 10.203125 L 7.796875 15.109375 C 9.714844 17.027344 11.542969 18 13.230469 18 C 14.472656 18 15.628906 17.472656 16.667969 16.429688 L 17.515625 15.585938 C 18.03125 15.070312 18.148438 14.292969 17.808594 13.652344 Z M 17.808594 13.652344 "/>
</g>
</svg>
